<?xml version="1.0" encoding="utf-8"?>
<!-- Generator: Adobe Illustrator 16.0.0, SVG Export Plug-In . SVG Version: 6.00 Build 0)  -->
<!DOCTYPE svg PUBLIC "-//W3C//DTD SVG 1.1//EN" "http://www.w3.org/Graphics/SVG/1.1/DTD/svg11.dtd">
<svg version="1.1" id="Calque_1" xmlns="http://www.w3.org/2000/svg" xmlns:xlink="http://www.w3.org/1999/xlink" x="0px" y="0px"
	 width="888px" height="1520.926px" viewBox="0 0 888 1520.926" enable-background="new 0 0 888 1520.926" xml:space="preserve">
<rect x="39.011" y="-40" fill="none" width="888" height="1610.936"/>
<g enable-background="new    ">
	<path d="M60.064,243.911V52.51h30.943v73.051c0.957,0,10.527-7.656,28.391-7.656c13.398,0,24.883,4.147,34.452,12.441
		c9.57,7.975,14.355,18.821,14.355,32.538v31.581c0,15.95,0.319,27.115,0.319,33.814c0,10.527,0,15.631-0.319,15.631h-28.392
		c-0.318-7.337-0.318-16.269-0.318-26.796V202.44v-13.717v-21.692c0-8.932-7.976-18.502-23.606-18.502
		c-12.76,0-24.882,6.699-24.882,18.502v18.183v27.753v30.943H60.064z"/>
	<path d="M377.468,133.218l-7.975,7.656c-11.165,10.846-26.797,20.735-41.471,30.624l-0.957,0.638h-1.275
		c-7.656,0-13.398,2.233-18.821,7.975c-0.957,0.957-2.233,1.595-3.19,2.233c-0.638,0.319-1.275,0.957-1.595,1.276l-2.552,2.552
		l-2.552-2.552c-5.104-5.104-11.165-7.018-19.778-8.294c-7.976-1.276-14.355-0.319-19.14,3.828
		c-2.553,2.552-5.104,5.104-6.699,7.656c-3.828,7.337-4.785,15.312-4.785,25.839v0.319l3.828,7.018
		c4.146,7.656,8.613,15.631,13.397,23.287c2.553,3.828,1.276,7.337,0.319,9.889l-2.871,7.975l-4.146-5.741
		c-1.914-2.871-3.51-4.785-5.424-6.699c-2.232-1.595-4.146-3.509-6.38-5.423c-4.785-4.466-9.889-8.933-14.993-13.079
		c-2.232-1.596-4.466-2.871-7.337-3.828l-1.275-0.638c-7.337-6.38-14.993-12.76-22.969-19.141l-10.846-8.613v-2.552l0.638-1.276
		c0-2.552,0.319-4.785,0.957-7.018l1.596-6.38l4.466,4.466c2.871,2.871,5.104,5.742,7.018,8.932
		c1.596,2.871,5.104,5.423,8.294,6.699c0.319,0,0.319,0,0.319,0.319c-2.871-6.699-7.018-12.76-12.441-17.545l-5.741-5.104
		l7.655-1.276c3.19-0.638,6.062-0.638,8.613-0.957v-0.319l-2.871-14.355l11.804,14.355c3.509,4.147,6.698,7.975,10.207,12.441
		c0.957,1.914,2.233,3.509,2.871,4.785v0.319c0.319-1.276,0.957-2.233,1.596-3.19c2.232-4.466,4.785-8.613,7.018-12.76
		c2.871-4.785,5.423-9.251,7.976-14.036c0.956-1.595,1.913-3.19,2.87-5.104c-0.957-2.233-6.061-5.742-10.846-7.018
		c0,0.319-0.638,0-1.595,0c-0.638,0-1.276,0-1.914,0h-11.165l19.778-14.674c11.803-8.932,24.243-18.502,36.685-25.839l1.595-0.957
		l1.596,0.319c7.018,2.233,15.312,2.552,24.562,0.957c12.122-1.914,23.287-7.018,34.771-16.269
		c2.552-2.233,5.742-5.104,10.208-7.337c4.785-2.552,8.612-0.319,10.526,1.595l3.19,2.552l-2.871,2.871
		c-8.613,8.613-16.588,15.312-23.925,21.692c-5.742,4.785-12.441,9.57-18.821,14.355l-2.232,1.276
		c-3.828,2.871-5.742,5.104-6.062,7.975c0,0.957-0.319,1.276,0,1.595c0.319,0.638,0.957,0.957,1.914,1.276h0.957
		c3.828,0.957,7.656,2.233,11.484,2.233h1.275c9.57,0,18.821-2.233,27.115-4.466c0.957-0.638,1.914-0.957,1.914-1.276
		c2.233-2.871,4.466-4.147,7.337-4.466L377.468,133.218z M291.338,138.002c-3.509-1.595-8.294-2.552-13.717-2.552
		c-8.933,0-17.864,2.233-22.33,4.785c-0.639,0-0.639,0.319-0.957,0.319c1.275,0.957,3.189,2.233,4.146,2.233
		c3.828,0.638,7.019,1.276,10.527,1.595c2.232,0.319,4.146,0.319,6.38,0.638h2.552c6.062-0.638,8.613-0.957,13.398-3.509
		c1.275-0.957,2.232-1.276,2.871-1.914C293.89,139.279,292.933,138.959,291.338,138.002z"/>
	<path d="M515.594,216.158l9.57,27.753h-33.176l-6.062-8.613c-5.104,2.871-9.251,5.104-13.079,6.699
		c-5.104,1.595-10.526,1.914-22.968,1.914c-16.269,0-29.985-5.742-41.789-16.907c-11.803-11.165-17.545-26.477-17.545-45.617
		c0-18.821,5.742-34.133,17.545-45.936c11.804-11.803,25.201-17.864,39.875-17.864c6.699,0,14.036,0.957,22.012,2.871
		c7.975,1.595,13.078,3.828,15.949,6.699v-10.527h29.667V216.158z M453.071,213.925c16.907,0,30.305-14.036,30.305-31.9
		c0-6.061-1.595-12.441-5.423-20.416c-4.147-8.613-13.398-14.355-26.158-14.355c-19.459,0-31.899,15.95-31.899,35.409
		C419.895,200.527,434.887,213.925,453.071,213.925z"/>
	<path d="M589.92,243.911l-43.384-127.281h30.305l27.754,77.517l24.882-77.517h26.796l26.796,77.517l24.562-77.517h31.581
		l-39.556,127.281h-30.943l-25.2-76.879l-24.244,76.879H589.92z"/>
	<path d="M791.528,123.329h33.494v26.477h-33.813v59.015c0,22.648,0,34.133,0.319,35.09c-9.57-0.319-17.546-0.319-23.926-0.319
		c-5.423,0-8.294,0-8.612,0.319c-0.319-41.151-0.319-75.603-0.319-102.718c0-23.925,0-36.047,0.319-36.047
		c1.914-37.004,33.176-47.531,44.979-48.169l5.104-0.319l4.466,7.337l8.294,14.674l4.466,7.337l-7.975,0.957
		c-3.19,0.319-7.976,1.914-14.355,4.466c-6.38,2.552-10.527,6.061-12.44,10.208V123.329z"/>
</g>
<g enable-background="new    ">
	<path d="M242.26,380.161c14.25,45.75,2,96.5-36.25,151.75c-14.25-13.75-28.25-27.75-42.5-41.5c4.5-21.25,1.25-38.75-10.5-50.25
		c-6.75-6.25-16.25-10.75-30.25-12.5l-4,1.25l-8.25,8.5c-1.75-1.5-3.25-3-4.75-4.75l-1.25,0.5v-1.5c-0.75-0.75-1.5-1.5-2.25-2.25
		l1.75-2c-1.5-0.25-3-0.5-4.5-0.75l-0.75-23l5.75-1.75v-93.75c-15,28.25-24.5,70-28,124.25c-12.5-0.5-25-0.75-37.5-1
		c10.75-51.5,27.5-100.25,50.5-144.25c21.5-1.25,43-2.5,64.5-3.75c4.5-0.75,9-1.5,13.5-1.5c5.5,0,11.25,0.25,17,0.75
		c8.75,1,17.5,1.5,26.25,2.5c4.25,0.5,8.5,1.25,13,2.25c0.25,1,0.25,2.5,0.5,3.75c-5,0.25-9.5,0.75-14,1.5
		c-9.75,1.25-19.5,3.75-28.5,8c-0.75,0.5-1.75,0.75-2.5,1.25c-5.75,3.25-11.25,7-14.25,14.5c-0.25,0.25-0.75,0.5-1.25,0.75
		c0-0.75-0.75-1.5-0.5-2c0.25-5.5,0.75-10.5,1.25-15.75c-3.75,0-7.5,2.25-10.5,5.75v82.5l93.5-27l-0.5-7.75
		c7.5,6.25,15.25,12.75,22.75,19.25L242.26,380.161z"/>
	<path d="M381.506,460.161l7.5,21.75h-26l-4.75-6.75c-4,2.25-7.25,4-10.25,5.25c-4,1.25-8.25,1.5-18,1.5
		c-12.75,0-23.5-4.5-32.75-13.25s-13.75-20.75-13.75-35.75c0-14.75,4.5-26.75,13.75-36s19.75-14,31.25-14c5.25,0,11,0.75,17.25,2.25
		c6.25,1.25,10.25,3,12.5,5.25v-8.25h23.25V460.161z M332.506,458.411c13.25,0,23.75-11,23.75-25c0-4.75-1.25-9.75-4.25-16
		c-3.25-6.75-10.5-11.25-20.5-11.25c-15.25,0-25,12.5-25,27.75C306.506,447.911,318.256,458.411,332.506,458.411z"/>
	<path d="M411.006,470.411c-1.25-10-2.5-20-3.5-30c-2.25-19.5-3.75-39-5-58.5c-1.25-19.75-2-39.5-2.5-59.25
		c-0.25-12.75,1.25-15.75,14.25-12.25c9.75,2.75,17.25,6.5,22,15.75c2.5,4.75,4.5,11.5,9,14.5c21.75,14.75,27-20.25,37.75-30.5
		c19-17.75,56.75-17.75,81-20.75c73.5-9.5,147.75-17.75,212.75,28.5c25,18,43,46,61.5,66.25c-52.75-19-102.25-50.5-152.25-51.5
		c-51.25-1-104.75,24.5-154.25,45c-37.25,15.5-75.5,45.5-59.25,90.25c8.75,24.5,47.25,38.5,75.25,59.5c-17,0.75-40.25,8.5-58.5,1.75
		c-25-9.25-50-21-74.5-32.75C412.506,495.411,411.506,473.661,411.006,470.411z"/>
</g>
<g enable-background="new    ">
	<path d="M93.86,734.866h40.847v32.287H93.471v71.967c0,27.62,0,41.624,0.39,42.791c-11.671-0.389-21.396-0.389-29.176-0.389
		c-6.613,0-10.114,0-10.503,0.389c-0.389-50.182-0.389-92.195-0.389-125.261c0-29.175,0-43.958,0.389-43.958
		c2.334-45.125,40.457-57.962,54.85-58.74l6.224-0.389l5.446,8.947l10.114,17.895l5.446,8.947l-9.726,1.167
		c-3.89,0.389-9.725,2.334-17.505,5.446c-7.78,3.112-12.837,7.391-15.172,12.448V734.866z"/>
	<path d="M184.492,772.989c0,3.111,1.556,7.391,3.89,9.725c16.339,17.117-9.336,18.283,7.78,35.4
		c2.334,1.945,8.947,2.723,10.503,1.166c9.726-10.113,21.396-19.449,21.396-35.788c0-51.738,0-103.087,0-155.214
		c0-2.723-0.389-7.002-2.334-8.169c-15.949-14.782-93.751-28.787-109.311-42.402c1.167-2.723,1.556-5.057,1.944-7.391
		c14.394-1.167,89.472-3.89,98.419-3.89c3.891-3.89,7.78-8.169,11.671-12.448c0.389,5.057,143.543,5.835,143.933,10.893
		c0.777,5.835-114.758,5.057-114.368,10.892c6.613,80.136-15.949,171.941-12.838,253.633c-21.784,28.008-38.9,58.74-55.238,91.416
		c-3.112,6.225-6.225,13.227-10.504,22.174c-1.556-9.726-3.111-17.506-4.278-25.285c-4.279-24.508,7.002-91.807-3.112-94.141
		c4.279-22.173,8.558-44.347,12.448-66.52C184.492,762.096,184.492,767.153,184.492,772.989z"/>
	<path d="M321.419,648.506h36.955v138.486h11.281l39.679-60.296h42.013l-52.516,78.19l51.349,77.023H407l-37.345-59.129h-11.281
		v59.129h-36.955V648.506z"/>
	<path d="M503.859,738.367c9.726-8.169,19.45-12.059,28.787-12.059h32.287v29.954h-13.227c-8.947,0-15.949,1.556-20.228,4.668
		c-3.891,2.724-5.836,6.613-5.836,10.892c0,4.669,3.501,8.947,10.504,12.838c18.672,10.504,30.731,19.062,36.566,25.675
		c5.835,6.612,8.947,13.615,8.947,20.228v2.334c0,33.845-19.062,50.571-52.905,50.571c-18.672,0-39.679-6.224-50.182-10.892
		l13.615-33.066c16.338,5.836,28.009,8.947,35.399,8.947c2.723,0,4.668-0.389,6.225-0.777c7.391-1.557,10.503-5.057,10.503-9.336
		s-1.945-7.781-5.446-10.504c-8.947-6.613-26.842-15.949-35.789-21.006c-8.947-5.058-17.116-16.728-17.116-33.455
		c0-3.111,0-6.225,0.39-9.725C488.298,754.705,494.133,746.147,503.859,738.367z"/>
	<path d="M670.346,808.778c-14.782-2.334-30.732-3.113-45.515-3.113c-1.556-0.389-3.501,0.39-5.445,0.779
		c-4.279-17.117-8.559-34.233-13.227-50.96c10.114-13.227-1.556-59.519,7.391-73.134c6.613,15.171,32.677,61.853,38.512,75.856
		c39.29-11.281,77.024-21.784,115.536-31.898c12.059-3.112,51.737-12.448,59.906-14.004c-10.892,12.06-20.617,24.896-30.731,37.734
		c-12.448,7.002-24.896,15.171-35.399,24.507c-17.895,15.171-33.844,32.677-39.679,57.962
		C706.524,818.502,689.406,811.889,670.346,808.778z"/>
</g>
<g enable-background="new    ">
	<path d="M158.004,963.805l-37.297,118.105H93.475L53.218,963.805h28.121l25.752,71.929l23.089-71.929H158.004z"/>
	<path d="M302.747,1056.159l8.881,25.752h-30.785l-5.624-7.992c-4.736,2.664-8.584,4.736-12.136,6.216
		c-4.736,1.48-9.769,1.776-21.312,1.776c-15.097,0-27.825-5.328-38.777-15.688s-16.28-24.568-16.28-42.329
		c0-17.464,5.328-31.672,16.28-42.624s23.385-16.577,37.001-16.577c6.216,0,13.024,0.889,20.425,2.664
		c7.399,1.48,12.136,3.553,14.8,6.217v-9.768h27.528V1056.159z M244.731,1054.086c15.688,0,28.12-13.024,28.12-29.601
		c0-5.624-1.479-11.544-5.032-18.944c-3.848-7.992-12.432-13.32-24.272-13.32c-18.056,0-29.601,14.801-29.601,32.856
		C213.946,1041.654,227.859,1054.086,244.731,1054.086z"/>
	<path d="M469.395,1105.591c-3.848-4.145-7.695-7.696-11.84-10.36c-11.84-7.4-23.977-8.584-37.001-2.368
		c-10.655,5.328-7.695,14.504-0.592,18.648c6.513,4.144,13.32,6.808,19.536,10.064c-14.208,7.104-16.28,7.696-21.608,20.128
		c-4.144,9.176-7.695,19.24-10.063,29.305c-5.032,19.832-8.584,39.961-13.32,59.497c0,1.479-1.776,2.368-2.368,3.552
		c-0.592-1.184-1.776-2.072-2.368-2.96c-0.296-3.552-0.296-2.072-0.296-3.552c-2.664-15.393-3.552-30.488-7.4-45.289
		c-5.92-23.385-15.688-44.4-36.408-57.425c7.399-3.849,15.392-8.288,22.792-13.32c7.104-4.736,11.544-11.544,10.952-21.017
		c-0.296-4.144-1.479-6.216-6.216-6.216c-6.512,0-12.729-0.592-19.536-0.592c-3.553,0-4.736-0.889-4.736-4.736
		c0.296-11.248,0.592-23.089,0.592-34.337c0.296-14.208,0.296-28.12,0.296-42.328c15.688-29.305,35.225-56.834,60.978-80.218
		c6.216,5.328,12.432,10.656,19.832,15.688c-3.552,1.184-5.624,2.072-7.104,1.775c-9.473-2.664-18.057-0.295-26.345,2.961
		c-1.776,0.592-2.664,3.552-2.96,5.92c0,27.824,0,55.057,0,82.881c0,10.064,0,19.832,0,29.896c0.296,2.664,0.888,6.513,2.664,7.104
		c2.368,0.592,5.92,0.296,8.288-1.184c10.656-5.921,17.464-15.985,25.456-25.161c1.48-2.072,4.145-4.439,6.809-5.328
		c7.399-2.664,9.768,0.297,10.952,8.289c0.888,7.399,2.368,15.096,5.328,21.607c5.328,11.841,16.872,15.688,28.712,16.28
		c3.553,0.296,6.809,0.296,10.36,0c-5.328,13.32-10.952,24.568-15.984,31.969c-0.888,1.185-2.072,1.48-2.96,2.368
		C474.131,1113.288,472.948,1109.143,469.395,1105.591z"/>
	<path d="M670.676,979.197l-7.4,7.104c-10.36,10.064-24.864,19.24-38.48,28.416l-0.888,0.592h-1.185
		c-7.104,0-12.432,2.072-17.464,7.4c-0.889,0.889-2.072,1.48-2.96,2.072c-0.593,0.296-1.185,0.888-1.48,1.184l-2.368,2.368
		l-2.368-2.368c-4.735-4.736-10.36-6.512-18.353-7.695c-7.399-1.185-13.319-0.297-17.76,3.552c-2.368,2.368-4.736,4.735-6.216,7.104
		c-3.553,6.808-4.44,14.207-4.44,23.977v0.295l3.552,6.513c3.849,7.104,7.992,14.504,12.433,21.608
		c2.368,3.552,1.184,6.808,0.296,9.176l-2.664,7.4l-3.848-5.328c-1.776-2.664-3.257-4.44-5.032-6.216
		c-2.072-1.48-3.849-3.257-5.92-5.032c-4.44-4.145-9.177-8.288-13.913-12.137c-2.071-1.479-4.144-2.664-6.808-3.552l-1.185-0.592
		c-6.808-5.921-13.912-11.841-21.312-17.761l-10.064-7.992v-2.367l0.592-1.185c0-2.368,0.296-4.44,0.888-6.513l1.48-5.92
		l4.144,4.145c2.664,2.664,4.736,5.328,6.513,8.288c1.479,2.664,4.736,5.032,7.696,6.216c0.296,0,0.296,0,0.296,0.297
		c-2.664-6.217-6.513-11.841-11.544-16.281l-5.328-4.736l7.104-1.184c2.96-0.592,5.624-0.592,7.992-0.888v-0.296l-2.664-13.32
		l10.952,13.32c3.256,3.848,6.217,7.4,9.473,11.544c0.888,1.776,2.072,3.256,2.664,4.44v0.295c0.296-1.184,0.888-2.071,1.479-2.959
		c2.072-4.145,4.44-7.992,6.513-11.841c2.664-4.44,5.032-8.584,7.399-13.024c0.889-1.479,1.776-2.959,2.664-4.736
		c-0.888-2.071-5.624-5.328-10.063-6.512c0,0.297-0.593,0-1.48,0c-0.592,0-1.184,0-1.776,0h-10.359l18.352-13.616
		c10.952-8.288,22.497-17.168,34.041-23.976l1.48-0.889l1.479,0.296c6.513,2.072,14.208,2.368,22.793,0.888
		c11.248-1.775,21.608-6.512,32.264-15.096c2.368-2.072,5.328-4.736,9.473-6.809c4.44-2.367,7.992-0.295,9.769,1.48l2.96,2.368
		l-2.664,2.664c-7.992,7.992-15.393,14.208-22.201,20.128c-5.328,4.44-11.544,8.881-17.464,13.32l-2.072,1.184
		c-3.552,2.664-5.328,4.736-5.624,7.4c0,0.889-0.296,1.185,0,1.48c0.296,0.592,0.889,0.888,1.776,1.184h0.888
		c3.552,0.889,7.104,2.072,10.656,2.072h1.185c8.88,0,17.464-2.072,25.16-4.145c0.888-0.592,1.775-0.888,1.775-1.184
		c2.072-2.664,4.145-3.848,6.809-4.145L670.676,979.197z M590.754,983.637c-3.256-1.48-7.696-2.368-12.728-2.368
		c-8.288,0-16.577,2.071-20.721,4.44c-0.592,0-0.592,0.295-0.888,0.295c1.184,0.889,2.96,2.072,3.848,2.072
		c3.552,0.592,6.512,1.185,9.769,1.48c2.071,0.296,3.848,0.296,5.92,0.592h2.368c5.624-0.592,7.992-0.888,12.432-3.256
		c1.185-0.889,2.072-1.184,2.664-1.776C593.122,984.821,592.235,984.525,590.754,983.637z"/>
	<path d="M701.456,963.805h29.009c0,18.352-0.296,42.624-0.296,72.521v48.841c0,15.984-5.328,28.713-15.393,39.369
		c-7.696,7.992-21.608,12.432-31.08,18.056l-10.064-27.824c0.888,0.592,20.128-5.92,25.16-17.76
		c2.072-5.032,3.256-10.952,3.256-17.761c0-1.776,0-3.256-0.296-4.44L701.456,963.805z M701.456,899.276l29.009,0.295v30.785
		h-29.009V899.276z"/>
	<path d="M784.335,963.805h29.009c0,18.352-0.296,42.624-0.296,72.521v48.841c0,15.984-5.328,28.713-15.393,39.369
		c-7.696,7.992-21.608,12.432-31.08,18.056l-10.064-27.824c0.888,0.592,20.128-5.92,25.16-17.76
		c2.072-5.032,3.256-10.952,3.256-17.761c0-1.776,0-3.256-0.296-4.44L784.335,963.805z M784.335,899.276l29.009,0.295v30.785
		h-29.009V899.276z"/>
</g>
<g enable-background="new    ">
	<path d="M196.691,1395.991c-46.08,20.16-93.601,35.28-145.081,45c2.16-12.24,18-65.881,20.52-77.76
		c11.52-5.76-3.24,46.08,7.56,39.6c17.641-10.8,52.561-21.24,66.601-35.28c4.68-4.68-3.96-38.521-8.28-40.319
		c-10.8-4.681-29.88-9.721-38.52-6.121c-7.2,2.881-33.48,65.881-40.681,69.121c4.68-14.76,31.32-83.521,61.561-123.121
		c37.439-48.959,23.04-69.119,14.76-76.68c12.96-24.48,28.08-47.88,43.561-70.92c24.479,90.359-39.601,203.4-5.761,290.521
		c-9-2.16,76.32-27,63.721-24.479C224.05,1388.071,208.571,1390.951,196.691,1395.991z"/>
	<path d="M243.488,1317.151c14.04-14.041,31.32-20.881,51.12-20.881c19.801,0,36.36,6.84,50.4,20.881
		c14.04,13.68,20.88,30.6,20.88,50.399s-7.2,37.08-21.24,51.12s-30.96,21.24-50.76,21.24s-36.36-7.2-50.4-21.24
		s-20.88-31.32-20.88-51.12S229.448,1330.831,243.488,1317.151z M265.808,1395.63c8.28,7.921,17.641,11.88,28.44,11.88
		c11.16,0,20.52-3.959,28.439-11.52c8.28-7.92,12.24-17.28,12.24-28.44c0-10.44-3.96-19.44-12.24-27
		c-7.92-7.56-17.279-11.521-28.439-11.521c-10.8,0-20.16,3.961-28.44,11.521c-7.92,7.56-11.88,16.56-11.88,27
		C253.928,1378.35,257.888,1387.71,265.808,1395.63z"/>
	<path d="M562.448,1297.71c24.479,0,45.72,17.64,52.56,41.04v100.44h-37.8v-84.24c0-10.44-12.601-20.521-25.561-20.521
		c-11.88,0-20.52,6.48-26.64,19.44v86.04h-37.8l0.359-84.24v-1.08c0-10.08-12.24-20.16-25.56-20.16c-11.88,0-20.88,6.84-27,20.16
		l0.359,85.32h-36.72v-144h35.64v13.32c13.32-7.201,26.28-10.801,38.521-10.801c17.28,0,31.32,7.2,42.48,21.24
		C530.047,1304.911,545.887,1297.71,562.448,1297.71z"/>
	<path d="M823.802,1469.431c-0.721,3.6-1.08,7.56-1.801,10.8c-5.399-2.16-10.439-3.24-15.479-3.601c0-1.08,0-2.52,0-3.96
		c-2.521-20.52-10.44-32.399-25.561-31.319c-3.239,0.359-5.399,1.079-6.479,4.68c0,0-0.36,0-0.36,0.36
		c-4.68-28.801-16.92-57.601-20.88-87.841c0.72-1.8,1.8-3.6,2.521-5.76c-1.08-0.72,5.76-1.8,4.68-2.521
		c-15.12-7.92-36-3.959-47.16,9.36c5.76,4.32,11.16,8.28,16.92,12.601c0.36,0.359,0.36,1.8,1.08,2.879
		c-0.72,0.361-1.8,1.08-2.521,1.08c-11.52-1.799-22.68,3.961-33.84,10.801c-1.439,0.72-3.6,1.8-5.04,2.88
		c-17.279,9.72-32.76,24.84-47.88,39.96c-6.84,6.48-13.68,13.68-21.24,21.6c-1.08-1.439-2.16-2.88-2.52-4.319
		c5.04-7.92,10.439-16.2,15.84-23.76c11.52-15.48,23.76-30.601,35.28-46.081c7.2-10.08,14.76-19.799,22.68-29.16
		c10.44-11.879,21.24-22.68,32.76-32.76c9-7.92,17.641-15.119,26.641-23.039c3.24-2.881,6.84-5.761,10.439-9
		c3.24,4.319,2.881,8.639,1.08,14.399c-1.8,6.479-1.08,11.88,3.601,13.681c4.68,1.799,2.16,40.319,7.56,41.039v1.44
		c-2.88,3.96-5.399,7.56-5.76,9.36c-3.24,15.119,11.52,37.439,14.4,50.76c1.079,5.399-8.28,6.479-3.961,6.84
		c0.36,0,0.36,0.72,1.08,0.36c3.96,1.8,7.921,2.16,11.521-1.801c3.96-4.68,5.76-9.72,5.04-15.839
		c-0.72-5.041-0.72-10.801-1.08-16.201c-1.08-9-7.92-49.32-10.08-41.399c0,0.36-0.36,1.079-0.72,1.8
		c5.04-14.76,9.72-41.04,11.52-46.801c0.721-2.52,1.44-5.039,1.8-7.199c9.721,15.48,16.921,34.2,22.32,54
		c-1.8-1.8-3.96-3.24-6.12-4.68c-0.72,3.6-1.439,7.56-2.52,11.52c0,0.36,0,1.439,0,2.881c2.52,18.719,5.399,37.799,7.56,56.879
		C820.921,1432.71,823.081,1451.071,823.802,1469.431z"/>
</g>
</svg>
